<?xml version="1.0" encoding="utf-8" ?><svg xmlns="http://www.w3.org/2000/svg" xmlns:xlink="http://www.w3.org/1999/xlink" width="1024" height="1024" viewBox="0 0 1024 1024"><path fill="#3E415B" d="M345.161 133.184C336.863 96.6836 352.319 63.8596 389.098 51.6497C421.609 40.8567 456.062 57.1668 470.066 88.2104C472.187 92.9114 473.953 100.769 475.555 106.083C487.645 104.664 500.696 101.416 512.704 98.8578C529.025 95.3959 545.369 92.0416 561.735 88.7952C569.581 87.208 586.085 83.4298 593.357 83.4121C602.387 83.3902 617.267 86.8054 626.976 88.1953L721.986 102.466C789.402 111.937 856.758 121.824 924.052 132.126C935.75 133.84 947.459 135.478 959.178 137.038C984.488 140.507 1002.79 141.075 997.645 173.87C995.806 185.594 994.062 198.475 992.369 210.297L980.86 290.611L948.051 522.586C942.366 564.5 936.401 606.376 930.155 648.21C927.228 668.876 924.544 698.664 918.762 718.924C917.126 724.655 907.847 728.196 902.166 729.981C894.013 732.697 892.011 733.76 893.648 742.631C898.275 757.381 904.148 772.321 908.876 787.08C910.618 792.516 914.307 801.996 914.925 807.363C915.384 811.656 914.785 815.997 913.179 820.004C909.112 830.048 899.369 838.931 891.305 845.946C857.78 875.11 816.868 894.426 776.252 911.823C681.72 951.213 582.135 977.165 480.401 988.923C458.639 991.278 433.534 995.122 412.433 987.642C400.806 983.52 397.127 976.514 392.821 965.836C389.352 957.232 386.105 948.55 382.834 939.819C376.625 923.002 370.182 906.273 363.508 889.636C348.645 892.024 327.857 897.468 312.953 900.956L225.843 921.297C211.24 924.696 196.543 929.009 181.693 931.351C177.211 932.004 173.461 932.35 169.111 930.711C155.862 925.716 154.516 913.054 151.634 901.163L144.046 869.261L117.135 753.488L59.512 502.668C54.0832 478.666 48.485 454.702 42.7178 430.778C37.3725 408.431 32.2318 385.994 27.4142 363.542C25.6123 355.144 25.1212 347.952 29.7252 340.331C36.1871 329.635 50.3228 327.663 61.368 325.164C104.588 315.387 147.568 304.631 190.638 294.249L220.099 287.313C226.084 285.913 234.448 284.201 239.98 281.909L240.682 281.614C240.012 275.572 236.991 263.23 235.598 256.855L225.179 209.517C222.742 198.234 217.559 180.971 223.696 170.467C225.956 166.607 229.283 163.483 233.277 161.47C242.315 157.013 262.678 152.752 273.113 150.31L317.078 139.725C326.437 137.52 335.883 135.686 345.161 133.184Z"/><path fill="#F3F2DE" d="M345.161 133.184C336.863 96.6836 352.319 63.8596 389.098 51.6497C421.609 40.8567 456.062 57.1668 470.066 88.2104C472.187 92.9114 473.953 100.769 475.555 106.083C487.645 104.664 500.696 101.416 512.704 98.8578C529.025 95.3959 545.369 92.0416 561.735 88.7952C569.581 87.208 586.085 83.4298 593.357 83.4121C602.387 83.3902 617.267 86.8054 626.976 88.1953L721.986 102.466C789.402 111.937 856.758 121.824 924.052 132.126C935.75 133.84 947.459 135.478 959.178 137.038C984.488 140.507 1002.79 141.075 997.645 173.87C995.806 185.594 994.062 198.475 992.369 210.297L980.86 290.611L948.051 522.586C942.366 564.5 936.401 606.376 930.155 648.21C927.228 668.876 924.544 698.664 918.762 718.924C917.126 724.655 907.847 728.196 902.166 729.981C900.237 730.15 899.042 730.519 897.474 729.478C896.332 727.939 896.033 726.96 895.291 725.168C900.093 723.68 912.025 720.843 913.464 716.183C917.42 703.378 919.293 684.565 921.211 671.125L932.255 593.012L974.87 289.953L987.668 200.141L990.873 176.698C991.261 173.902 992.382 166.968 992.472 164.362C992.565 161.86 992.147 159.365 991.244 157.03C986.657 145.344 971.918 145.482 961.17 143.906L922.959 138.331L768.512 115.708L648.697 97.9491L615.932 92.9693C610.535 92.1385 595.875 89.6923 591.171 90.1086C579.792 91.1157 565.023 94.7326 553.595 96.9792L499.086 108.08C490.209 109.901 478.106 112.021 469.572 114.195C468.507 79.2329 441.864 53.1894 406.637 54.4797C390.751 54.9684 375.713 61.764 364.849 73.3644C348.315 91.225 344.284 115.7 353.415 138.114C324.654 144.572 295.743 150.429 267.24 157.891C257.433 160.459 247.247 161.683 237.896 165.741C219.907 173.37 228.188 196.853 231.498 211.31C234.665 225.483 237.761 239.671 240.785 253.876C242.873 263.503 246.583 277.945 246.684 287.387C237.405 290.389 228.391 292.175 218.895 294.301L186.857 301.668L93.4795 324.123C80.8502 327.096 68.1268 329.713 55.3971 332.524C41.9913 335.485 28.7999 342.677 32.1458 358.931C34.868 372.155 38.0104 385.368 41.0769 398.533L58.6846 473.383L105.885 678.631L142.49 836.452L153.932 885.613C156.209 895.351 158.455 905.172 161.248 914.738C162.16 917.858 166.272 922.734 169.123 923.8C179.923 927.841 198.206 921.252 208.658 918.874L271.638 903.942L328.402 890.973C340.234 888.278 354.013 885.533 365.399 881.737C373.315 899.503 379.952 917.724 386.733 935.94C391.137 947.77 395.812 964.199 402.828 974.45C405.829 978.834 408.544 980.73 413.434 982.594C450.471 996.717 567.601 969.871 610.29 958.996C640.859 951.31 671.133 942.489 701.047 932.554C732.584 921.982 763.561 909.809 793.858 896.082C829.21 879.966 878.049 855.212 903.09 824.11C905.741 820.817 907.935 815.299 909.413 811.36C907.134 801.075 900.594 786.017 896.981 775.109L881.09 727.115C878.191 718.356 872.477 698.03 867.19 691.341C861.11 688.32 850.067 689.912 843.204 690.524C764.168 697.567 681.843 717.272 607.151 742.389C555.187 759.901 504.612 781.297 455.857 806.396C425.556 821.746 397.597 836.944 369.257 855.678C372.369 862.632 375.825 869.484 378.817 876.469C387.797 897.435 394.787 919.131 403.597 940.178L399.191 944.543C389.719 920.015 381.462 895.073 370.632 871.115C367.939 865.156 364.77 858.696 362.919 852.458C497.545 761.776 663.962 704.618 824.778 683.413C837.369 681.752 850.636 680.353 863.211 682.405C875.97 684.243 876.425 696.351 880.481 706.274C885.007 717.632 888.392 731.678 893.648 742.631C898.275 757.381 904.148 772.321 908.876 787.08C910.618 792.516 914.307 801.996 914.925 807.363C915.384 811.656 914.785 815.997 913.179 820.004C909.112 830.048 899.369 838.931 891.305 845.946C857.78 875.11 816.868 894.426 776.252 911.823C681.72 951.213 582.135 977.165 480.401 988.923C458.639 991.278 433.534 995.122 412.433 987.642C400.806 983.52 397.127 976.514 392.821 965.836C389.352 957.232 386.105 948.55 382.834 939.819C376.625 923.002 370.182 906.273 363.508 889.636C348.645 892.024 327.857 897.468 312.953 900.956L225.843 921.297C211.24 924.696 196.543 929.009 181.693 931.351C177.211 932.004 173.461 932.35 169.111 930.711C155.862 925.716 154.516 913.054 151.634 901.163L144.046 869.261L117.135 753.488L59.512 502.668C54.0832 478.666 48.485 454.702 42.7178 430.778C37.3725 408.431 32.2318 385.994 27.4142 363.542C25.6123 355.144 25.1212 347.952 29.7252 340.331C36.1871 329.635 50.3228 327.663 61.368 325.164C104.588 315.387 147.568 304.631 190.638 294.249L220.099 287.313C226.084 285.913 234.448 284.201 239.98 281.909L240.682 281.614C240.012 275.572 236.991 263.23 235.598 256.855L225.179 209.517C222.742 198.234 217.559 180.971 223.696 170.467C225.956 166.607 229.283 163.483 233.277 161.47C242.315 157.013 262.678 152.752 273.113 150.31L317.078 139.725C326.437 137.52 335.883 135.686 345.161 133.184Z"/><path fill="#F3F2DE" d="M590.669 98.9715C599.732 98.8329 620.343 102.836 630.18 104.378L697.903 114.523L979.021 155.802C981.385 158.647 982.065 160.114 983.438 163.366C980.782 175.417 978.514 197.621 976.717 210.47L963.565 303.099L921.533 601.285L911.717 671.89C910.615 679.998 907.871 705.887 905.285 712.105C901.305 713.963 896.267 715.287 891.995 716.557C881.205 692.713 873.276 661.339 868.372 635.523C865.986 622.96 864.869 608.153 863.205 595.328C860.141 572.234 857.274 549.114 854.603 525.972L849.319 479.683C848.086 468.715 846.656 457.827 846.232 446.797C847.605 446.247 849.172 445.581 850.169 444.465C856.743 437.099 863.22 428.794 869.445 421.123C880.788 407.121 892.317 393.271 904.031 379.578C901.609 373.664 898.167 366.615 895.502 360.634C891.062 350.241 867.966 288.546 863.59 283.815C862.514 282.651 861.617 282.638 860.175 282.67C855.639 284.742 842.425 309.033 836.54 315.934C836.458 294.327 835.155 272.293 834.991 250.435C844.686 246.767 852.826 241.056 857.735 231.729C862.421 222.742 863.333 212.257 860.269 202.596C857.234 193.113 850.526 185.241 841.644 180.739C831.812 175.839 820.414 175.13 810.05 178.774C799.899 182.188 791.564 189.568 786.947 199.231C782.867 207.759 782.321 217.552 785.426 226.481C789.997 239.294 798.393 244.784 810.041 250.376C798.745 277.015 790.203 305.572 779.723 332.476C753.803 399.02 734.142 467.312 710.453 534.609C701.35 523.107 692.974 511.027 683.955 499.418C689.274 493.703 696.97 485.463 701.275 478.864C701.808 478.047 701.573 478.036 701.228 477.096C696.052 473.436 675.921 476.278 669.181 477.274C662.483 469.116 656.105 459.854 649.893 451.242L621.525 411.939C599.141 380.962 575.384 349.366 553.45 318.35C556.54 302.557 557.549 281.225 559.733 264.737C564.168 231.131 569.055 197.165 574.671 163.752C577.166 148.907 580.796 109.011 590.669 98.9715Z"/><path fill="#3E415B" d="M688.439 230.906C691.693 230.968 693.136 233.182 694.397 235.875C699.373 246.508 702.946 257.739 707.497 268.58C715.875 288.83 725.93 308.346 737.559 326.921C720.98 340.17 701.932 367.249 689.148 384.875C682.868 393.533 676.472 405.489 669.012 413.291C661.623 403.776 658.737 392.215 653.955 381.445C643.374 357.616 634.973 334.246 619.292 313.274C637.618 298.444 650.556 279.532 664.518 260.718C671.398 251.446 679.719 238.299 688.439 230.906Z"/><path fill="#F3F2DE" d="M634.58 315.832C635.931 315.923 637.41 316.041 638.49 316.9C648.882 325.17 661.336 356.892 663.196 369.198C660.756 366.227 652.427 344.388 649.949 339.445C644.719 329.007 641.601 325.039 634.58 315.832Z"/><path fill="#F3F2DE" d="M675.172 267.487L676.141 267.882C666.215 284.909 653.675 303.227 635.33 311.561C637.358 308.852 638.957 307.3 641.64 305.258C655.276 294.879 665.322 281.38 675.172 267.487Z"/><path fill="#D2CFCB" d="M675.172 267.487C676.078 266.042 675.892 265.735 677.126 265.365C677.076 266.711 676.901 266.716 676.141 267.882L675.172 267.487Z"/><path fill="#3E415B" d="M607.493 181.413C610.849 184.361 617.262 203.475 620.686 209.979C614.459 219.254 610.037 228.607 602.35 237.164C598.217 234.93 591.367 213.964 588.784 207.717C595.577 198.847 599.394 190.498 607.493 181.413Z"/><path fill="#3E415B" d="M601.926 115.96C604.997 116.35 609.01 116.707 611.733 117.965C614.32 121.238 609.18 124.986 609.026 132.004L609.45 132.421C611.114 131.011 616.331 126.789 617.688 125.026C618.045 124.563 616.429 122.829 617.188 120.316C620.294 116.937 629.512 117.665 629.535 122.114C627.863 125.207 619.338 130.164 615.918 132.605C619.572 141.176 622.412 149.859 626.018 158.281C627.886 159.451 628.522 159.621 629.483 161.486C629.518 163.204 629.802 162.501 628.719 163.708C624.712 165.239 622.929 164.597 618.616 164.026C616.603 163.596 616.608 163.681 614.933 162.575C613.96 160.907 614.201 161.788 614.225 159.823C615.716 157.777 616.948 158.999 618.688 157.122C618.358 152.606 614.673 143.128 611.319 139.892C606.895 138.989 605.535 153.357 605.242 156.469C607.171 158.152 608.461 158.027 607.97 160.935C604.92 164.204 596.837 162.825 593.675 160.03C593.056 158.39 593.081 159.219 593.774 157.46C595.372 155.764 596.863 155.631 599.142 155.011C601.025 145.223 602.585 134.2 604.285 124.209C600.759 121.004 600.267 120.561 601.926 115.96Z"/><path fill="#3E415B" d="M884.184 609.868C886.459 611.084 892.018 624.186 893.016 627.167C897.706 641.174 883.812 645.67 878.468 655.475C872.154 650.369 865.571 629.122 871.878 622.149C875.868 617.737 879.869 613.995 884.184 609.868Z"/><path fill="#F3F2DE" d="M248.07 296.592C250.832 298.958 255.019 323.345 256.209 328.822L268.802 385.918C281.723 444.978 295.02 503.954 308.692 562.844C291.91 546.854 276.53 534.942 258.827 520.351C243.221 507.383 227.7 494.314 212.262 481.146C218.295 473.662 221.297 465.788 220.873 456.051C220.392 446.639 216.204 437.799 209.224 431.465C202.143 425.109 192.793 421.888 183.299 422.533C173.589 423.145 164.019 427.732 157.642 435.11C151.874 441.77 149.021 450.467 149.725 459.249C150.587 469.228 155.441 478.436 163.187 484.785C171.967 491.989 180.957 494.074 192.074 492.952C194.614 500.204 199.872 509.994 203.204 517.484C192.792 510.825 183.192 503.399 170.225 505.331C162.229 506.523 155.784 510.533 151.063 517.028C146.007 523.924 143.937 532.563 145.319 541.001C150.177 570.979 199.914 601.907 223.716 618.826C228.551 611.731 232.437 603.682 235.693 595.757C244.059 615.245 254.095 635.592 263.001 655.042L315.625 770.321C320.583 781.891 327.597 795.604 333.033 807.245C343.261 828.783 352.821 850.631 361.698 872.759C301.042 890.028 237.826 900.916 176.716 916.956C172.464 914.864 170.505 914.054 169.355 909.211C166.766 898.313 164.257 887.398 161.722 876.487L146.721 811.803L102.113 619.149L60.5725 440.079C54.0826 412.156 45.9561 381.606 40.4103 353.807C42.3392 349.697 43.6227 346.208 48.2385 344.637C55.6769 342.104 63.5325 340.561 71.1842 338.78L106.099 330.507C135.687 323.66 165.237 316.645 194.746 309.463C212.506 305.244 230.511 301.498 248.07 296.592Z"/><path fill="#3E415B" d="M209.631 698.669C211.972 699.095 213.708 699.711 214.625 702.069C216.744 707.521 218.17 713.332 219.681 718.987C222.099 728.176 224.575 737.35 227.108 746.508C228.288 735.611 232.629 726.102 243.463 721.561C249.776 718.888 256.897 718.854 263.234 721.469C270.137 724.351 275.64 730.236 278.322 737.148C286.543 758.335 268.321 786.713 258.803 805.656C253.644 815.806 248.868 826.146 244.486 836.655C243.797 837.607 244.222 837.205 243.011 837.651C240.698 836.563 235.142 831.582 232.939 829.766C227.043 824.878 221.12 820.022 215.171 815.198C199.079 802.223 172.495 787.684 168.851 765.971C166.272 750.602 178.306 735.014 193.909 733.944C205.198 733.17 210.712 735.723 219.158 742.505C215.053 730.419 210.21 717.404 208.273 704.722C207.848 701.934 208.039 700.957 209.631 698.669Z"/><path fill="#F3F2DE" d="M249.023 734.073C251.11 733.756 253.923 733.554 255.526 735.034L254.188 734.159L255.477 734.555C255.188 736.345 247.951 736.599 246.192 737.37C244.47 738.125 243.411 739.085 242.007 740.274L241.431 740.768C240.543 741.986 239.898 743.229 238.563 743.764L238.129 742.973C239.698 737.556 243.975 735.37 249.023 734.073Z"/><path fill="#F3F2DE" d="M190.643 747.493L191.318 748.062C190.806 750.399 186.91 752.477 185.34 754.375C183.446 756.663 184.475 763.318 184.497 766.62C178.286 759.859 184.036 751.417 190.643 747.493Z"/><path fill="#3E415B" d="M97.0938 417.238C110.894 422.121 137.38 439.11 122.492 456.138C119.64 459.401 114.707 459.444 110.769 459.502C113.251 463.085 115.107 465.553 117.9 468.896L112.25 470.546L103.261 472.983C104.087 468.214 104.437 465.544 104.668 460.713C102.728 462.067 100.748 463.32 98.5038 464.175C92.2228 466.851 83.0941 459.955 81.9082 453.931C79.5106 441.753 90.944 427.229 97.0938 417.238Z"/><path fill="#3E415B" d="M88.3399 350.525C90.9495 350.361 94.6403 349.973 95.6815 352.902C94.8702 354.861 94.7 354.466 92.5622 355.907C90.5937 359.895 88.1252 366.184 86.3229 370.429C90.6375 375.484 99.9075 388.733 104.398 392.266C104.751 392.32 105.104 392.378 105.456 392.442C107.446 392.8 108.428 392.955 109.48 394.481L108.978 395.699C106.445 397.978 92.7991 403.334 92.0429 397.965C92.8162 395.905 94.2731 395.071 96.0307 393.646C92.8845 387.456 89.4457 383.437 85.1288 378.068L80.2717 387.635C80.586 391.949 80.9673 393.512 82.0065 397.632C84.3166 397.426 88.161 396.839 88.9666 399.557C88.419 401.055 87.5483 401.519 86.289 402.519C83.1303 404.012 73.5843 407.167 71.6083 402.891C72.6901 400.645 74.1257 400.377 76.3643 399.634C74.6476 391.223 70.613 369.911 67.3056 363.019C66.8348 362.846 66.366 362.668 65.8993 362.484C63.8489 361.672 62.7547 361.317 61.865 359.251C62.7767 354.859 76.2082 352.615 79.1803 356.458L78.7965 357.78C77.2064 359.66 75.498 360.018 73.1539 360.914C75.1768 366.719 76.3916 372.977 78.4718 379.044C79.7344 374.191 85.0279 361.032 84.9784 357.971C83.9578 357.68 82.9298 357.415 81.8955 357.178C80.9177 355.621 81.2106 356.516 81.5603 354.245C82.9207 352.136 85.9803 351.346 88.3399 350.525Z"/><path fill="#E07A60" d="M457.391 262.253C460.191 264.596 466.817 274.362 469.349 277.871C525.058 354.439 581.333 430.594 638.169 506.329L692.031 577.2C697.579 584.54 703.08 591.915 708.535 599.323C711.04 602.708 718.482 614.2 722.263 614.812C725.313 613.102 730.869 594.619 732.435 590.072C737.249 576.165 741.98 562.229 746.629 548.266C760.269 507.715 774.858 466.966 788.957 426.526C792.638 416.071 796.26 405.597 799.824 395.102C802.965 385.561 806.039 375.07 809.932 365.858C810.86 372.328 811.049 380.052 811.15 386.579C803.004 391.787 811.835 392.4 812.555 397.728C813.002 401.029 808.073 400.7 806.096 403.172L806.289 404.309C807.883 406.261 809.417 406.912 811.605 408.168L813.741 413.499C810.346 414.834 807.838 415.841 804.592 417.485C807.774 419.511 813.701 422.402 814.472 425.671C813.571 428.618 809.75 429.694 806.897 431.318C806.447 434.575 812.481 434.684 815.467 439.792C815.31 443.644 807.201 442.805 804.681 446.02C806.341 449.859 813.723 449.727 816.316 453.945C814.976 456.071 805.568 458.55 802.32 460.125C805.378 461.134 816.324 463.908 817.275 466.86C815.811 469.114 805.393 471.656 802.421 472.56C806.031 473.717 816.945 476.673 818.358 479.889C816.198 483.19 804.846 481.279 803.562 485.352C809.04 488.177 814.86 488.534 820.684 491.867C816.214 494.161 807.368 496.401 801.864 498.508C808.834 499.949 814.388 501.032 821.068 503.647C815.523 506.91 810.246 506.988 804.155 509.528C807.679 511.209 820.721 514.593 821.688 516.659C820.234 518.822 809.9 522.102 806.918 523.258C796.953 516.662 785.705 516.16 775.509 522.585C769.999 525.991 766.093 531.473 764.673 537.793C762.982 545.414 764.554 553.953 768.976 560.394C772.923 566.2 779.05 570.165 785.965 571.387C795.854 573.047 802.43 569.487 809.912 563.936C812.916 564.113 825.817 564.037 826.708 567.245C823.271 570.735 808.64 570.403 806.235 574.275C809.013 577.654 827.021 576.028 829.594 581.174C828.102 583.115 819.315 583.776 816.575 584.239C811.047 585.221 805.585 586.54 800.219 588.19C810.289 589.237 824.545 590.33 833.387 594.77C822.818 597.872 806.926 598.39 797.489 601.667C804.348 602.618 830.143 603.322 833.761 606.91L833.558 607.572C830.037 609.031 818.551 610.429 814.64 610.915C807.168 611.845 801.035 612.723 793.662 614.386C801.967 615.794 831.291 616.301 835.508 619.061L835.667 620.107C833.512 622.394 817.6 623.233 813.247 623.648C786.924 626.287 760.795 630.601 735.021 636.563C726.618 638.436 714.335 640.967 706.645 643.932C745.425 639.084 783.817 628.94 823.29 629.981C826.693 630.071 838.389 629.351 839.074 633.464C837.248 636.917 819.809 636.538 814.709 636.918C769.27 640.601 724.252 648.334 680.189 660.025C599.92 680.529 521.926 709.084 447.393 745.254C427.963 754.654 408.811 764.617 389.961 775.132C382.275 779.452 374.737 783.816 367.353 788.632C365.268 789.991 361.984 792.077 359.534 791.087L359.48 789.885C361.604 785.878 364.545 784.593 368.418 782.093C381.244 774.103 394.876 767.147 408.028 759.733C432.761 745.79 457.735 732.503 483.314 720.176C489.971 716.968 496.719 713.78 503.128 710.101C489.102 713.916 467.914 723.55 454.121 729.835C430.543 740.41 407.334 751.788 384.535 763.949C379.008 766.962 358.026 781.83 353.313 780.301C351.368 773.033 382.545 764.713 376.469 756.011C370.162 752.211 355.046 768.136 347.529 767.408L347.261 766.701C350.111 760.77 363.691 752.166 369.591 748.017C368.436 745.215 367.273 743.149 365.819 740.498C362.163 742.751 344.875 754.164 341.617 754.322C340.248 753.441 340.714 754.051 340.314 752.331C342.629 743.488 369.721 736.48 359.683 728.583C356.434 727.772 338.881 738.134 335.162 740.15C334.237 738.978 333.148 737.355 332.255 736.108C339.627 730.159 347.572 727.673 355.768 723.369C364.87 718.588 370.83 708.114 369.683 697.832C368.931 691.324 365.574 685.399 360.378 681.409C356.911 678.755 352.879 676.936 348.594 676.095C330.152 672.36 317.087 695.023 310.849 689.879C311.042 686.57 319.781 680.453 322.174 677.759C324.302 675.364 325.104 674.274 326.918 671.62C318.144 673.645 314.049 676.426 306.509 681.157L304.105 676.4C307.087 674.173 318.469 665.727 318.59 662.036L317.984 661.576C313.588 661.446 305.823 665.524 301.572 667.414L300.58 667.024L300.32 665.851C302.187 660.224 311.564 656.374 311.691 651.807L310.832 651.074C305.295 650.253 300.653 653.785 295.894 656.552C294.716 654.714 293.368 652.19 292.254 650.249C294.888 648.643 308.245 641.239 303.933 637.47C298.969 636.778 293.118 640.61 288.841 643.014L285.981 638.133C288.818 636.011 296.86 630.193 296.121 626.406C293.223 624.599 285.499 628.73 282.531 630.087L280.08 624.503C282.921 622.119 288.848 617.659 287.762 613.655L286.576 613.069C282.467 613.081 280.133 614.688 276.537 616.599L274.309 610.47C277.283 608.692 282.353 606.348 281.785 602.342L280.652 601.582C276.934 601.101 274.834 602.565 271.415 604.187L269.4 599.151C271.532 597.625 276.483 594.644 276.227 591.85C274.03 590.535 269.005 591.572 265.887 591.584L265.473 590.885C265.953 587.905 269.535 585.055 268.358 582.587C266.421 581.915 264.81 582.471 262.729 582.856C259.406 577.401 257.115 572.048 254.473 566.25C266.441 578.422 283.712 592.008 297.12 603.059C323.664 624.997 350.503 646.577 377.627 667.793C385.406 673.913 393.123 680.112 400.776 686.388C408.54 692.722 422.337 704.203 431.14 708.35C436.316 699.183 438.507 674.273 439.925 662.754C441.119 663.447 442.344 664.087 443.594 664.674C454.246 669.667 465.761 672.21 477.337 673.968C512.067 679.328 547.589 675.775 580.569 663.642C617.237 650.418 648.296 627.171 671.067 595.828C677.043 587.602 681.351 583.559 685.821 574.067C678.807 565.63 666.967 558.411 657.293 552.956C620.699 532.321 575.2 526.73 534.746 537.952C503.134 546.721 474.399 570.035 457.001 597.411C451.632 605.859 447.146 615.68 442.217 624.683C449.084 550.404 453.49 475.917 455.427 401.345C456.851 356.361 458.671 307.269 457.391 262.253Z"/><path fill="#3E415B" d="M494.638 399.719C494.96 399.745 495.283 399.763 495.605 399.797C500.891 400.357 553.813 433.788 561.606 439.697C563.113 440.84 564.321 442.106 565.537 443.55C564.246 448.315 562.735 453.179 561.131 457.86C553.825 479.186 547.125 500.775 539.401 521.943C538.996 523.054 537.678 524.23 536.784 524.989C528.01 521.9 505.531 505.642 496.319 499.791C487.594 494.25 473.12 485.183 465.084 479.101C469.341 464.644 475.123 449.085 480.354 434.899C484.448 423.794 489.432 410.15 494.638 399.719Z"/><path fill="#E07A60" d="M498.153 407.134C502.639 409.541 511.514 415.534 516.198 418.46C530.375 427.21 544.438 436.144 558.383 445.259C553.361 460.919 547.857 476.517 542.562 492.09C541.244 495.967 535.621 515.368 534.01 516.568C515.17 502.66 491.953 490.243 473.029 476.495C474.6 470.128 478.902 458.884 481.209 452.425C486.517 437.203 492.166 422.102 498.153 407.134Z"/><path fill="#3E415B" d="M501.031 416.21C506.983 418.861 517.569 425.436 523.159 428.976C531.659 434.358 543.319 441.418 551.078 447.729C549.411 453.661 545.836 464.021 543.807 470.012C541.062 478.123 535.386 500.977 530.835 506.896C517.483 499.285 491.862 482.786 479.825 473.718C484.011 459.651 494.952 429.006 501.031 416.21Z"/><path fill="#EAD8A3" d="M504.456 424.955C517.664 433.481 530.695 440.634 543.622 449.824C540.203 459.966 537.316 470.388 534.079 480.586C532.725 484.852 530.317 493.551 528.304 497.359L527.285 497.45C513.546 488.899 500.171 480.593 487.056 471.074C491.065 457.655 498.667 437.306 504.456 424.955Z"/><path fill="#3E415B" d="M384.296 745.852C392.772 747.922 392.14 751.95 386.008 756.961C376.957 755.376 380.272 750.705 384.296 745.852Z"/><path fill="#3E415B" d="M375.633 735.928C378.797 735.979 382.26 736.542 382.739 740.138C382.259 741.914 381.498 742.355 380.138 743.606C377.921 744.115 376.638 744.087 374.636 743.202C372.02 740.237 373.503 738.591 375.633 735.928Z"/><path fill="#3E415B" d="M395.099 742.772C396.897 742.108 398.896 743 399.603 744.781C400.309 746.563 399.464 748.583 397.7 749.331C396.521 749.831 395.164 749.653 394.154 748.866C393.144 748.079 392.639 746.807 392.835 745.541C393.032 744.276 393.898 743.216 395.099 742.772Z"/><path fill="#3E415B" d="M407.911 736.241C409.329 735.78 410.856 736.536 411.349 737.944C411.842 739.351 411.122 740.895 409.726 741.42C408.794 741.771 407.746 741.59 406.986 740.946C406.226 740.303 405.874 739.299 406.066 738.322C406.258 737.345 406.964 736.549 407.911 736.241Z"/><path fill="#F3F2DE" d="M356.897 147.169C359.463 147.64 363.942 152.886 365.886 155.017C378.96 169.345 392.95 171.823 411.426 174.156C411.924 184.678 413.253 195.442 413.55 206.058C414.044 213.979 413.058 222.429 413.534 230.292C415.03 255.039 414.588 279.975 416.105 304.692C413.083 305.239 408.538 306.659 405.456 307.528C407.337 303.005 408.622 298.708 408.989 293.804C410.292 276.397 395.351 263.452 378.764 262.732C370.296 262.303 362.006 265.26 355.722 270.951C341.493 284.059 342.573 303.246 355.542 316.892C347.836 317.475 341.694 318.363 335.3 323.172C329.563 327.478 325.796 333.906 324.843 341.015C323.69 348.929 325.819 356.971 330.737 363.278C344.097 380.46 363.572 375.055 377.906 363.024C377.228 368.237 377.5 374.012 376.634 379.528C376.55 382.396 372.125 389.435 373.171 392C374.517 395.297 382.021 394.271 385.526 393.842C394.995 392.684 404.692 389.969 414.002 387.471C413.988 393.265 414.247 408.649 412.876 413.231C409.001 426.177 400.048 441.639 393.427 453.451C388.734 461.85 384.099 470.282 379.523 478.746C367.531 500.775 358.062 520.731 383.286 538.294C391.969 542.882 398.466 541.626 407.896 540.853C408.442 553.194 406.538 565.469 406.475 577.824C393.888 588.68 381.456 599.95 368.902 610.892C354.533 600.398 334.587 583.53 320.797 571.74L320.621 571.144C318.962 565.395 317.635 558.071 316.266 552.052L308.892 520.74C296.98 469.652 285.482 418.47 274.399 367.196L249.153 247.229L241.785 212.486C239.803 203.464 237.616 194.406 236.281 185.258C235.888 182.938 235.826 180.181 237.331 178.094C240.389 174.097 247.448 172.518 252.143 171.368C261.765 169.012 271.385 166.712 281.005 164.41C306.22 158.307 331.52 152.56 356.897 147.169Z"/><path fill="#3E415B" d="M287.196 246.242C294.08 251.001 304.527 263.008 310.371 269.454C306.06 279.329 303.552 289.629 299.578 299.696C296.651 299.413 279.667 279.164 276.568 275.677C280.76 266.424 283.191 255.827 287.196 246.242Z"/><path fill="#3E415B" d="M277.789 182.591C280.447 182.331 286.556 181.505 286.257 185.688C285.149 187.471 284.457 187.567 282.452 188.515C280.567 193.918 278.727 199.335 276.932 204.768C283.5 212.099 289.561 217.627 297.409 223.426C298.115 223.948 297.794 225.41 297.609 226.173C294.679 229.199 283.122 230.962 282.816 226.245C283.689 224.634 284.265 224.486 285.859 223.584L286.398 223.286C283.727 220.283 276.531 210.561 272.685 212.653C270.734 216.453 272.558 221.749 273.479 225.93C275.452 226.113 277.791 226.14 279.133 227.555C279.487 229.572 279.371 228.962 278.63 231.134C274.729 233.068 265.053 235.976 261.721 232.253L261.871 230.955C262.925 229.314 264.627 228.767 266.42 227.909C267.832 224.377 260.303 198.836 258.793 193.893C256.859 193.487 255.266 193.39 253.868 192.043C253.245 190.529 253.248 191.271 253.878 189.745C256.319 187.725 264.584 185.044 267.215 186.745C268.91 190.871 262.228 196.12 269.292 205.817L270.004 205.698C272.597 202.423 274.679 195.117 274.853 190.932C274.915 189.453 271.356 189.376 270.812 186.3C272.276 184.084 275.236 183.441 277.789 182.591Z"/><path fill="#3E415B" d="M470.398 918.747C480.744 912.016 505.295 900.556 516.742 895.28C593.726 860.571 674.067 833.851 756.504 815.54C800.465 805.427 846.761 795.865 892.022 797.865C897.94 798.126 902.584 806.599 900.037 811.723C885.282 841.413 847.024 859.418 819.3 875.261C713.22 929.695 583.459 962.742 465.58 977.316C461.151 977.806 456.71 978.171 452.261 978.411C438.873 979.054 419.225 979.001 408.818 969.517C411.626 953.331 428.086 944.288 440.828 935.996C450.124 929.947 460.358 923.431 470.398 918.747Z"/><path fill="#E07A60" d="M470.398 918.747C480.744 912.016 505.295 900.556 516.742 895.28C593.726 860.571 674.067 833.851 756.504 815.54C800.465 805.427 846.761 795.865 892.022 797.865C897.94 798.126 902.584 806.599 900.037 811.723C885.282 841.413 847.024 859.418 819.3 875.261C713.22 929.695 583.459 962.742 465.58 977.316C464.515 976.949 463.392 976.629 462.311 976.301C459.758 973.638 460.505 970.27 460.574 966.376C479.76 965.99 509.881 961.153 529.307 957.744C599.925 945.577 669.253 926.847 736.39 901.797C777.051 886.307 819.102 867.229 853.732 840.451C859.766 835.785 881.801 819.314 865.182 813.739C858.087 811.358 848.457 811.592 841.047 812.009C800.56 814.542 760.996 823.921 721.875 834.168C652.151 852.249 584.053 876.104 518.287 905.484C503.282 912.27 490.149 919.41 475.518 926.569C473.88 926.528 471.006 928.193 469.291 928.964C467.169 927.015 465.868 925.298 464.071 923.076C466.013 921.962 469.399 920.431 470.398 918.747Z"/><path fill="#EAD8A3" d="M470.398 918.747C469.399 920.431 466.013 921.962 464.071 923.076C465.868 925.298 467.169 927.015 469.291 928.964C471.006 928.193 473.88 926.528 475.518 926.569C465.427 932.831 453.715 938.873 445 946.824C425.617 964.506 445.019 966.949 460.574 966.376C460.505 970.27 459.758 973.638 462.311 976.301C463.392 976.629 464.515 976.949 465.58 977.316C461.151 977.806 456.71 978.171 452.261 978.411C438.873 979.054 419.225 979.001 408.818 969.517C411.626 953.331 428.086 944.288 440.828 935.996C450.124 929.947 460.358 923.431 470.398 918.747Z"/><path fill="#E07A60" d="M484.193 930.241C539.318 901.757 602.987 878.316 662.062 859.404C710.475 843.905 761.765 830.677 812.084 823.154C824.488 821.3 844.343 818.566 856.306 819.105C839.254 822.714 798.815 830.058 785.254 840.24C809.706 837.302 832.344 831.249 856.393 826.38C850.793 829.168 844.074 830.698 838.164 832.748C821.092 838.67 801.667 842.824 786.039 851.884C808.436 847.709 822.078 843.225 843.317 837.69C827.516 847.023 808.012 849.848 790.867 861.211C805.065 856.732 817.619 852.132 831.565 847.335C823.396 853.156 810.685 860.011 801.724 864.709C745.011 894.441 682.463 915.103 620.49 930.764C585.982 939.484 551.973 948.086 516.623 952.942C500.525 955.153 477.3 958.886 461.208 957.785C475.805 955.454 490.676 954.667 505.152 951.564C513.299 949.818 522.886 948.518 530.767 945.83L530.602 944.832C517.778 945.869 504.5 948.262 491.72 950.01C482.616 951.254 473.38 952.897 464.14 952.555C469.865 950.429 477.233 949.023 483.263 947.62C500.658 943.573 516.034 941.225 532.566 934.11C520.194 934.627 507.993 936.795 495.764 938.77C487.628 940.084 479.558 940.989 471.546 942.233C487.302 936.79 515.239 931.262 528.151 922.168C518.354 922.607 494.713 927.555 484.193 930.241Z"/><path fill="#704E4E" d="M530.602 944.832C532.025 944.496 532.611 944.209 533.997 944.671C533.035 945.594 532.105 945.589 530.767 945.83L530.602 944.832Z"/><path fill="#F3F2DE" d="M434.078 167.955C435.314 168.315 474.252 223.432 477.926 228.534L658.188 476.408L690.122 521.055C696.787 530.389 705.632 543.66 713.718 551.402C718.934 540.496 725.351 519.194 729.391 506.906L756.166 425.182C768.614 387.907 783.589 347.736 797.133 310.618L810.825 273.267C811.791 270.641 816.611 256.017 819.107 253.202C819.641 252.601 823.301 253.296 824.615 254.021C825.981 256.721 826.445 276.415 826.633 280.799C829.016 334.07 832.51 387.286 837.112 440.412C840.359 478.939 844.321 516.868 849.374 555.167C853.041 582.963 857.994 611.244 860.878 638.999C856.282 637.254 853.901 636.721 849.052 636.377C840.757 576.896 833.409 517.287 827.011 457.572C823.235 424.199 820.452 390.722 818.665 357.185C818.219 346.277 817.89 335.366 817.676 324.451C817.609 318.126 817.917 311.677 817.445 305.389C817.193 302.038 815.783 300.105 812.353 299.968C810.321 301.189 804.139 322.113 802.852 325.959L789.086 365.885L753.447 469.219C741.623 504.557 729.972 541.348 717.489 576.344C711.414 569.988 701.995 556.276 696.268 548.739C680.982 528.756 665.817 508.68 650.775 488.512C599.435 420.035 548.726 351.086 498.655 281.675C483.505 260.219 467.475 239.239 452.702 217.462C449.907 213.341 443.467 202.286 438.192 203.19C434.658 206.451 436.325 235.158 436.486 241.143C436.833 254.074 436.999 267.008 436.984 279.944C437.547 366.988 434.93 454.025 429.137 540.879C426.403 585.362 423.781 631.296 418.34 675.526C409.37 667.943 399.955 660.852 390.749 653.542C371.857 638.59 353.044 623.539 334.312 608.387L245.819 535.676C237.969 529.211 230.149 522.016 222.411 515.822L310.809 711.907C324.564 742.19 338.899 771.586 351.982 802.181L343.565 807.788C334.163 790.292 327.466 773.605 319.129 755.967C304.285 724.563 289.758 693.575 275.944 661.698C268.97 645.603 260.886 629.548 253.633 613.337C235.317 572.417 217.487 531.282 200.146 489.939L206.92 487.209C224.359 503.43 244.509 519.667 262.916 534.855L338.945 597.548L372.865 625.575C380.017 631.552 399.526 648.355 407.14 651.823L408.052 651.357C409.047 649.318 409.994 646.981 410.28 644.726C411.166 637.613 410.952 630.446 411.702 623.292C416.475 577.761 416.784 531.898 418.827 486.207C421.042 436.68 422.918 387.058 423.501 337.485C423.673 304.655 423.459 271.823 422.859 238.998C422.558 221.298 424.077 188.732 418.88 173.008C424.275 171.715 428.943 169.976 434.078 167.955Z"/><path fill="#F3F2DE" d="M594.678 753.756C651.313 731.673 804.876 692.258 862.162 699.004C847.182 702.556 830.241 703.351 814.03 707.656L814.293 708.937C825.085 707.532 854.963 706.57 864.527 709.28L862.837 710.615C846.827 712.482 834.401 714.278 818.603 717.798C820.432 718.805 826.776 718.285 829.586 718.569C836.099 718.493 866.584 717.381 870.138 720.429C868.952 721.817 842.763 724.058 838.033 725.699C836.248 726.319 822.874 728.924 820.987 729.149L822.013 730.15C836.938 729.489 859.989 728.001 873.954 730.888C862.069 734.449 841.329 736.489 827.765 739.65C843.839 742.689 862.014 737.227 878.51 742.245C865.499 744.766 843.337 746.264 831.934 749.257C847.039 752.214 863.146 748.832 880.469 752.924C875.001 753.961 836.304 759.468 834.624 760.832C838.759 762.73 878.988 758.741 883.616 764.076C881.318 766.242 872.486 765.718 868.909 766.168C858.43 767.485 847.841 768.687 837.458 770.664C838.003 770.873 840.013 771.558 840.354 771.881C848.379 772.36 883.474 769.807 887.361 773.756C886.886 774.561 886.601 775.182 885.543 775.325C871.397 777.229 856.434 777.282 842.254 779.043C790.273 785.72 738.835 796.107 688.335 810.125C664.57 816.745 643.266 824.022 620.091 831.083C626.339 816.286 638.472 795.552 642 781.218C634.685 772.644 605.93 762.79 594.678 753.756Z"/><path fill="#66676F" d="M829.586 718.569C825.992 718.935 819.915 719.205 816.407 718.709L816.562 718.271L818.603 717.798C820.432 718.805 826.776 718.285 829.586 718.569Z"/><path fill="#343237" d="M831.41 771.975C833.939 771.209 834.844 770.983 837.458 770.664C838.003 770.873 840.013 771.558 840.354 771.881C838.24 772.091 833.722 771.976 831.41 771.975Z"/><path fill="#343237" d="M814.03 707.656L814.293 708.937C812.973 709.034 811.652 709.113 810.33 709.176C810.814 708.4 812.86 708.03 814.03 707.656Z"/><path fill="#A0A19E" d="M822.013 730.15C820.204 730.513 819.908 730.661 818.053 730.261C818.654 729.379 819.587 729.476 820.987 729.149L822.013 730.15Z"/><path fill="#3E415B" d="M696.318 743.769C708.057 742.319 718.758 750.635 720.252 762.368C721.747 774.101 713.473 784.834 701.745 786.374C689.954 787.923 679.149 779.593 677.647 767.796C676.144 755.998 684.515 745.226 696.318 743.769Z"/><path fill="#EAD8A3" d="M694.193 750.505C701.944 750.275 709.668 752.383 713.05 760.125C714.49 763.347 714.517 767.024 713.123 770.266C711.028 775.064 707.032 777.227 702.493 779.073C695.356 780.867 687.835 778.764 684.555 771.702C682.873 768.104 682.69 763.986 684.046 760.253C685.958 755.071 689.564 752.748 694.193 750.505Z"/><path fill="#3E415B" d="M773.407 727.072C794.549 724.025 811.381 761.318 782.399 770.033C771.225 770.434 762.037 763.658 758.662 753.02C756.888 747.612 757.399 741.714 760.077 736.691C763.209 730.926 767.498 728.79 773.407 727.072Z"/><path fill="#F3F2DE" d="M765.792 742.634C765.322 741.771 765.408 741.753 765.173 740.768C766.899 734.563 774.142 733.826 779.571 734.117C788.743 737.449 795.763 746.319 792.068 756.264C790.868 759.516 788.349 762.108 785.134 763.401C781.822 764.711 778.12 764.621 774.877 763.151C768.892 760.417 760.666 747.865 765.792 742.634Z"/><path fill="#EAD8A3" d="M765.792 742.634C765.322 741.771 765.408 741.753 765.173 740.768C766.899 734.563 774.142 733.826 779.571 734.117C779.127 736.067 778.874 735.756 779.477 737.288C779.871 737.484 780.646 737.908 781.03 738.02L780.952 738.408C778.169 737.478 777.722 738.239 775.396 739.948C772.652 740.563 769.759 741.151 767.461 742.891L765.792 742.634Z"/><path fill="#3E415B" d="M775.396 739.948C779.723 741.089 781.194 741.54 784.235 745.01L783.871 745.321C782.545 746.433 782.423 746.61 780.72 747.153C779.307 748.843 779.762 749.496 778.922 751.506C778.612 743.369 773.845 743.065 767.461 742.891C769.759 741.151 772.652 740.563 775.396 739.948Z"/><path fill="#343237" d="M778.922 751.506C779.762 749.496 779.307 748.843 780.72 747.153C782.423 746.61 782.545 746.433 783.871 745.321L784.235 745.01C786.042 748.591 786.729 751.378 785.715 755.465L785.195 755.329L784.836 753.211C781.941 751.63 782.701 754.186 778.922 751.506Z"/><path fill="#343237" d="M781.03 738.02C789.149 741.62 792.903 752.003 786.439 758.944C788.593 749.227 789.681 744.988 780.952 738.408L781.03 738.02Z"/><path fill="#F3F2DE" d="M377.839 871.491C383.557 863.221 393 857.547 400.2 850.81C421.826 830.574 445.98 818.776 472.425 805.808C496.527 793.885 520.985 782.698 545.766 772.261C558.69 766.968 576.261 761.628 588.267 755.924C585.526 763.605 580.66 773.033 577.178 780.498C573.236 788.947 569.142 797.977 564.746 806.147C578.798 814.323 598.538 824.847 611.235 834.11C594.152 840.456 577.124 846.947 560.152 853.583C530.149 865.73 500.766 879.358 472.113 894.417C456.292 902.772 440.951 912.007 426.162 922.078C421.904 924.989 410.011 934.169 406.266 934.881C406.661 933.243 412.936 928.543 414.553 927.288C428.279 916.639 440.523 903.548 453.948 892.674C438.621 900.289 416.03 920.039 402.621 925.36C414.257 911.912 435.935 893.905 450.057 882.299C433.003 890.456 417.428 903.555 401.661 914.017C400.693 914.659 400.177 914.691 399.145 914.384C399.107 912.788 399.479 912.14 400.772 910.872C415.29 896.639 431.935 884.275 446.892 870.448C441.573 873.074 437.309 875.576 432.771 878.32C426.513 882.104 399.623 902.506 394.717 903.014L394.072 902.51C395.827 898.142 434.591 865.823 441.307 859.008C429.622 865.827 418.911 874.482 408.412 880.671C402.905 885.882 394.279 891.512 386.99 893.764C387.078 893.624 387.166 893.483 387.255 893.343L387.712 892.651C391.008 887.606 396.914 882.425 401.915 879.126C402.563 878.18 406.35 875.174 407.425 874.236C417.933 865.068 429.407 856.547 439.173 846.59C428.759 851.763 416.048 861.172 406.213 867.78C398.385 873.04 391.657 878.776 382.595 882.08C387.997 873.987 404.332 861.735 412.488 854.922C420.372 848.336 425.647 844.008 433.19 836.64L432.837 835.722C421.549 842.863 410.673 850.649 399.575 858.066C392.622 862.713 385.469 868.172 377.839 871.491Z"/><path fill="#EAD8A3" d="M386.99 893.764C387.078 893.624 387.166 893.483 387.255 893.343L387.712 892.651C391.008 887.606 396.914 882.425 401.915 879.126C401.013 882.444 398.619 881.785 397.581 884.987L397.946 885.662C402.623 884.985 404.084 881.247 408.412 880.671C402.905 885.882 394.279 891.512 386.99 893.764Z"/><path fill="#A0A19E" d="M432.837 835.722C434.183 834.658 433.989 834.459 435.458 834.274C434.831 835.714 434.595 835.544 433.19 836.64L432.837 835.722Z"/><path fill="#3E415B" d="M507.123 809.736C518.867 808.357 529.513 816.741 530.924 828.482C532.336 840.223 523.98 850.891 512.244 852.335C500.462 853.783 489.743 845.389 488.326 833.603C486.909 821.817 495.333 811.121 507.123 809.736Z"/><path fill="#EAD8A3" d="M507.072 816.766C512.184 815.843 517.397 817.746 520.712 821.746C524.027 825.746 524.93 831.222 523.074 836.074C521.218 840.926 516.892 844.402 511.753 845.169C503.975 846.33 496.705 841.033 495.426 833.273C494.147 825.513 499.332 818.163 507.072 816.766Z"/><defs><linearGradient id="gradient_0" gradientUnits="userSpaceOnUse" x1="614.69556" y1="765.50244" x2="593.55719" y2="692.63263"><stop offset="0" stop-color="#FBA063"/><stop offset="1" stop-color="#ED8866"/></linearGradient></defs><path fill="url(#gradient_0)" d="M347.096 815.425C354.702 808.695 371.717 797.959 380.95 792.017C468.497 735.687 569.101 698.202 669.02 670.431C717.281 657.018 770.038 647.398 819.787 644.219C830.951 643.506 849.482 642.246 859.544 647.707C865.35 650.858 868.364 666.391 869.83 672.92C867.989 672.704 865.891 672.588 864.022 672.439C862.722 667.666 861.373 662.049 855.937 660.553C842.986 656.988 828.743 660.009 815.621 661.263C766.787 665.931 718.231 673.955 671.287 688.469C656.639 692.993 644.245 696.61 630.548 703.546C634.066 702.799 662.945 696.004 664.112 696.671C665.018 697.189 665.6 698.437 666.695 699.045L667.546 698.62C668.725 693.801 670.972 694.221 675.353 693.422C676.033 695.704 676.02 696.997 677.567 698.33L678.109 698.002C678.706 696.497 678.646 694.385 678.714 692.699C679.937 691.905 684.353 691.047 686.016 690.657C686.645 692.25 687.582 695.266 689.237 695.833C690.787 693.972 690.032 691.505 691.364 689.348C698.396 685.12 695.72 692.982 700.147 692.419L700.826 691.51C700.973 689.781 700.916 688.669 701.733 687.133C707.202 683.968 705.708 690.695 709.382 691.292C712.958 688.552 706.599 685.719 715.234 683.513L715.984 683.327C716.838 685.279 717.248 686.913 718.957 688.117C721.269 687.029 719.992 683.719 723.586 681.807C725.259 681.66 725.159 681.593 726.64 682.35C727.06 683.474 727.384 684.45 727.748 685.586C729.376 686.469 728.557 686.359 730.264 686.09C732.066 683.316 729.599 682.496 732.066 680.082C737.714 679.225 738.23 684.917 741.16 685.133L741.701 684.321C741.393 682.129 741.208 681.772 741.877 679.751C743.49 678.1 744.041 678.409 746.557 677.824C747.63 679.992 748.26 681.848 750.055 683.414L750.834 683.239C751.73 680.298 751.8 677.297 755.088 676.968C757.94 678.059 758.819 679.77 760.861 682.264C762.191 679.635 762.657 677.638 764.814 675.937C769.132 674.98 767.377 679.35 771.16 681.492C772.54 681.047 772.468 680.859 773.374 679.653C772.926 677.188 772.415 676.217 774.568 674.644L775.931 674.866C777.427 675.976 777.445 676.753 777.975 678.556C779.312 679.366 779.364 679.603 780.865 679.586C783.501 677.344 781.118 675.18 783.661 674.95C785.859 676.09 788.345 677.878 790.58 677.768C791.628 676.911 791.646 676.722 792.39 675.56C794.558 675.016 795.351 675.766 797.736 676.714C810.871 674.415 841.988 670.572 854.123 671.965C844.209 674.528 830.966 674.9 820.317 676.399C797.027 679.679 773.302 682.886 750.351 688.092C648.278 711.248 547.679 743.187 453.92 790.157C425.216 804.537 393.791 822.472 366.374 839.246L364.664 834.197C381.161 825.082 397.281 813.528 414.376 803.835L456.775 780.246C462.273 777.19 473.033 771.543 477.931 768.185C465.704 772.015 455.503 777.286 444.045 782.906C419.415 794.988 396.065 809.17 371.448 821.373C382.097 812.174 402.144 802.127 414.649 795.385C453.898 774.222 494.576 757.065 535.701 739.984C554.056 732.36 573.643 725.371 591.66 717.37C526.969 732.123 459.915 762.729 401.557 793.791C390.686 799.577 363.371 814.823 354.383 822.702C351.629 822.411 351.159 820.718 349.266 818.404L348.123 818.435L347.096 815.425Z"/><path fill="#E07A60" d="M773.374 679.653C772.926 677.188 772.415 676.217 774.568 674.644L775.931 674.866C777.427 675.976 777.445 676.753 777.975 678.556C776.057 680.299 776.114 680.071 773.374 679.653Z"/><path fill="#F3F2DE" d="M572.838 102.669C574.826 102.469 574.594 102.174 576.052 102.947C576.933 105.985 573.902 115.161 573.099 119.031C570.842 130.436 568.764 141.877 566.867 153.348C560.966 187.858 555.713 222.476 551.111 257.183C549.912 265.631 548.812 274.094 547.811 282.569C547.007 289.867 546.355 298.846 544.753 305.937C531.052 286.855 517.071 268.306 503.4 249L463.907 193.577C456.808 183.599 449.941 173.487 442.602 163.69C456.116 153.522 466.063 140.646 469.001 123.721L525.133 112.08C540.612 108.85 557.303 105.17 572.838 102.669Z"/><path fill="#E07A60" d="M443.539 217.742C445.342 219.289 454.63 233.056 456.609 235.823L493.005 286.36C552.038 367.658 611.79 448.432 672.253 528.673C678.376 536.832 713.925 585.884 718.179 588.228C718.849 588.597 719.105 588.378 719.793 588.224C725.5 577.676 730.044 561.859 733.798 550.175C738.775 534.579 743.879 519.024 749.11 503.51C769.43 443.366 791.017 382.517 810.718 322.312C813.808 343.205 810.297 345.753 803.538 364.485C797.951 380.222 792.46 395.992 787.066 411.795L745.383 532.347C736.963 556.193 728.752 580.112 720.751 604.101C712.976 593.066 703.467 581.223 695.193 570.379L650.765 511.859C610.425 458.272 570.47 404.397 530.904 350.237C508.362 318.234 483.58 287.469 461.583 255.023C460.129 252.878 457.395 248.943 455.187 247.76C452.924 247.587 453.898 247.333 452.08 248.186C450.44 250.643 451.282 276.965 451.268 281.917C451.138 303.935 450.849 325.952 450.4 347.965C447.802 465.62 440.565 583.127 428.704 700.212C416.771 690.296 403.465 680.143 391.25 670.453C357.799 644.4 324.813 617.754 292.309 590.529C274.037 575.01 253.93 560.587 240.776 540.66C253.563 550.132 266.556 562.262 279.245 572.453L376.887 650.462L401.916 670.45C408.538 675.805 416.299 682.734 423.612 686.65C426.183 673.122 427.235 658.471 428.553 644.701C431.139 617.392 433.278 590.042 434.969 562.663C439.861 491.236 443.021 419.701 444.448 348.121C444.818 317.595 444.335 286.674 444.373 256.12C444.389 243.464 443.567 230.532 443.539 217.742Z"/><path fill="#EAD8A3" d="M403.658 64.2093C431.094 61.0083 455.958 80.5836 459.285 108.005C462.613 135.426 443.152 160.38 415.747 163.834C388.162 167.31 363.009 147.695 359.66 120.094C356.31 92.4934 376.042 67.4312 403.658 64.2093Z"/><path fill="#3E415B" d="M405.935 71.7641C429.177 69.9515 449.504 87.2871 451.383 110.524C453.262 133.761 435.985 154.138 412.753 156.084C389.428 158.037 368.95 140.674 367.064 117.343C365.177 94.0114 382.598 73.584 405.935 71.7641Z"/><path fill="#EAD8A3" d="M404.211 76.6258C405.667 76.4333 408.53 76.3123 409.999 76.2943C419.602 76.2237 428.832 80.0067 435.622 86.7964C442.753 93.7929 446.774 103.362 446.779 113.352C446.795 125.718 441.702 135.952 433.127 144.575C439.316 134.601 444.871 126.337 444.539 113.854C444.314 105.368 441.074 96.4155 434.701 90.477C433.606 89.4572 433.136 89.6053 432.023 89.7634C431.718 90.3671 431.19 91.2375 431.818 91.8174C436.478 96.1208 437.269 99.5236 438.975 105.581C443.018 121.341 433.062 147.142 415.497 150.33C397.35 154.151 374.774 140.832 372.003 121.663C368.543 97.7167 381.161 81.0201 404.211 76.6258Z"/><path fill="#F3F2DE" d="M600.499 564.377C614.105 564.508 612.104 574.049 615.501 585.187C615.468 581.029 612.526 568.685 615.237 566.218C619.008 567.108 620.217 574.125 621.054 577.3L622.586 576.866C622.473 574.219 621.829 569.824 623.868 567.898C627.536 568.679 628.183 575.019 629.219 577.926C630.102 576.747 629.89 573.306 630.027 571.421L630.144 570.198C631.481 568.973 631.899 569.439 634.353 569.405L636.975 570.51C643.15 571.701 642.867 573.247 644.298 578.95L645.64 577.045C645.57 575.32 645.45 573.743 645.611 572.02C653.777 574.424 664.251 577.281 671.629 581.397C665.316 590.565 659.529 598.726 652.06 607.008C622.819 639.433 584.005 658.4 541.407 666.263C514.559 671.22 475.204 669.278 449.807 658.855C453.12 652.859 456.841 645.55 461.276 640.437C462.408 640.171 462 640.195 463.203 640.344C464.468 635.091 464.71 635.172 467.919 630.853C469.077 632.867 468.775 633.052 470.492 634.108C472.113 632.801 470.721 629.693 470.161 627.953C471.289 626.244 472.374 624.182 474.063 623.143L474.862 623.382L475.28 624.277C476.693 624.066 476.964 623.83 478.283 623.266C477.442 621.586 477.175 621.3 477.202 619.384L477.798 618.923C480.089 619.582 485.041 626.585 486.976 628.989C486.093 625.613 481.985 615.487 483.225 612.894C485.59 613.807 490.549 623.308 493.545 626.67L494.064 627.245C492.363 622.236 485.852 610.539 488.942 606.038C491.614 607.118 493.565 614.093 496.187 617.026L496.793 616.751C497.308 613.083 491.997 603.225 495.176 601.252C496.431 602.305 498.336 607.909 499.026 609.677C503.8 621.908 511.829 631.385 523.426 637.681C536.433 644.793 551.721 646.485 565.968 642.387C579.985 638.114 591.727 628.441 598.605 615.501C608.496 597.016 606.25 583.364 600.499 564.377Z"/><path fill="#343237" d="M634.353 569.405L636.975 570.51C637.089 572.646 637.432 574.27 636.297 575.943L635.478 575.45C634.262 573.019 634.43 572.084 634.353 569.405Z"/><path fill="#343237" d="M478.283 623.266C478.642 625.058 479.186 626.398 478.426 627.966L477.707 628.106C476.167 626.735 476.116 626.249 475.28 624.277C476.693 624.066 476.964 623.83 478.283 623.266Z"/><path fill="#66676F" d="M621.054 577.3L622.586 576.866C622.766 580.037 623.011 583.221 622.949 586.393L621.054 577.3Z"/><path fill="#343237" d="M630.027 571.421C630.708 575.736 630.673 579.829 631.204 584.141C630.623 582.366 629.64 579.661 629.219 577.926C630.102 576.747 629.89 573.306 630.027 571.421Z"/><path fill="#66676F" d="M644.298 578.95L645.64 577.045C645.493 578.55 645.695 579.354 644.92 580.336C644.796 580.07 644.36 579.194 644.298 578.95Z"/><path fill="#F3F2DE" d="M865.146 783.705C869.454 783.318 893.533 782.759 895.037 787.54C891.68 790.163 877.124 789.712 872.453 789.864C865.04 790.144 857.637 790.646 850.254 791.371C826.437 793.803 802.782 797.627 779.412 802.823C678.397 825.307 577.297 856.412 484.951 903.526C464.746 913.835 436.958 928.66 419.371 942.861C413.357 948.069 409.345 952.313 404.182 958.198C403.415 956.411 402.758 954.459 402.093 952.621C403.24 951.199 404.411 949.798 405.608 948.417C422.37 929.227 460.586 907.9 482.934 896.414C572.306 851.429 667.277 818.563 765.337 798.685C800.17 791.505 829.524 786.223 865.146 783.705Z"/><path fill="#F3F2DE" d="M569.546 539.711C569.682 539.692 569.818 539.673 569.955 539.654C608.229 538.153 645.198 551.06 674.86 573.83C653.254 566.622 638.701 560.941 615.48 558.241C582.616 554.42 550.818 554.905 520.851 571.347C511.549 576.451 504.397 582.047 496.139 588.485C470.09 608.746 458.577 630.524 440.945 656.859C447.481 629.064 457.714 607.938 476.043 586.042C501.565 555.552 530.914 543.294 569.546 539.711Z"/><path fill="#F3F2DE" d="M818.653 185.222C834.542 182.8 849.402 193.67 851.904 209.547C854.406 225.423 843.609 240.337 827.745 242.918C811.769 245.517 796.727 234.627 794.207 218.639C791.688 202.651 802.652 187.663 818.653 185.222Z"/><path fill="#3E415B" d="M822.217 191.24C834.74 190.781 845.289 200.507 845.848 213.026C846.406 225.544 836.765 236.171 824.252 236.829C811.596 237.495 800.822 227.72 800.257 215.06C799.692 202.399 809.553 191.704 822.217 191.24Z"/><path fill="#EAD8A3" d="M819.137 195.243C829.504 193.162 839.594 199.882 841.67 210.25C843.746 220.618 837.021 230.705 826.652 232.776C816.29 234.845 806.212 228.126 804.137 217.765C802.063 207.405 808.777 197.323 819.137 195.243Z"/><path fill="#EAD8A3" d="M582.822 564.217L589.158 563.947C590.07 565.419 590.924 566.927 591.715 568.467C597.389 579.437 598.758 591.665 594.94 603.496C590.997 615.537 582.461 625.536 571.187 631.319C560.062 637.025 547.091 637.948 535.27 633.876C522.082 629.369 513.876 620.43 507.847 608.237C501.314 592.235 505.689 590.73 518.915 582.412C518.545 599.019 524.472 610.612 541.422 615.091C558.544 619.614 575.273 609.709 578.744 592.167C580.816 581.691 578.166 573.35 572.414 564.526C575.834 564.502 579.392 564.333 582.822 564.217Z"/><path fill="#F3F2DE" d="M181.898 431.227C196.487 429.199 209.957 439.38 211.988 453.968C214.019 468.556 203.842 482.029 189.254 484.064C174.662 486.098 161.183 475.917 159.152 461.324C157.12 446.731 167.305 433.255 181.898 431.227Z"/><path fill="#3E415B" d="M184.518 437.227C195.763 436.711 205.322 445.355 205.935 456.595C206.548 467.835 197.986 477.467 186.752 478.177C175.381 478.895 165.605 470.206 164.984 458.829C164.363 447.452 173.136 437.751 184.518 437.227Z"/><path fill="#EAD8A3" d="M181.057 440.771C190.344 438.48 199.725 444.167 201.989 453.459C204.254 462.752 198.541 472.117 189.242 474.355C179.98 476.584 170.66 470.899 168.405 461.644C166.15 452.388 171.808 443.053 181.057 440.771Z"/><path fill="#E07A60" d="M593.337 761.658C596.779 763.28 602.342 766.664 605.9 768.592L633.943 783.561C628.37 798.518 619.984 812.915 613.981 828.273C604.592 820.903 583.932 809.602 572.909 803.132C579.803 789.35 586.613 775.525 593.337 761.658Z"/><path fill="#EAD8A3" d="M787.156 525.765C797.718 523.734 807.937 530.616 810.026 541.167C812.116 551.717 805.291 561.975 794.752 564.123C784.13 566.288 773.774 559.398 771.668 548.763C769.562 538.129 776.51 527.812 787.156 525.765Z"/><path fill="#3E415B" d="M787.054 530.743C794.79 528.682 802.725 533.318 804.727 541.07C806.73 548.822 802.033 556.721 794.266 558.665C786.582 560.587 778.786 555.952 776.805 548.283C774.824 540.614 779.4 532.782 787.054 530.743Z"/><path fill="#EAD8A3" d="M787.295 534.504C792.465 534.734 798.088 536.173 800.618 541.201C801.661 543.245 801.82 545.628 801.058 547.793C799.737 551.515 796.778 553.269 793.489 554.943C791.097 555.442 789.483 555.58 787.058 554.943C784.379 554.246 782.092 552.503 780.709 550.105C779.23 547.476 778.938 544.342 779.906 541.485C781.307 537.402 783.715 536.179 787.295 534.504Z"/><path fill="#3E415B" d="M335.919 717.731C329.525 714.571 325.426 708.11 325.292 700.98C325.158 693.849 329.012 687.239 335.282 683.841C341.553 680.444 349.194 680.826 355.095 684.833C363.393 690.468 365.913 701.566 360.861 710.232C355.81 718.898 344.912 722.175 335.919 717.731Z"/><path fill="#F3F2DE" d="M335.919 717.731C329.525 714.571 325.426 708.11 325.292 700.98C325.158 693.849 329.012 687.239 335.282 683.841C341.553 680.444 349.194 680.826 355.095 684.833L353.425 689.659C349.209 686.096 343.325 685.263 338.287 687.516C333.248 689.769 329.945 694.71 329.79 700.227C329.635 705.745 332.654 710.863 337.558 713.396C337.108 715.038 336.898 716.345 335.919 717.731Z"/><path fill="#EAD8A3" d="M355.095 684.833C363.393 690.468 365.913 701.566 360.861 710.232C355.81 718.898 344.912 722.175 335.919 717.731C336.898 716.345 337.108 715.038 337.558 713.396C344.054 716.751 352.033 714.693 356.095 708.615C360.158 702.537 359.008 694.378 353.425 689.659L355.095 684.833Z"/><path fill="#EAD8A3" d="M341.713 689.769C345.569 688.888 349.601 690.149 352.268 693.071C354.934 695.994 355.822 700.124 354.593 703.884C353.363 707.644 350.206 710.452 346.328 711.233C340.438 712.421 334.688 708.653 333.425 702.779C332.162 696.905 335.855 691.107 341.713 689.769Z"/><path fill="#F3F2DE" d="M404.976 590.479C406.38 592.237 402.356 632.415 401.881 637.927C397.411 634.635 392.625 630.74 388.228 627.295L375.412 616.83C385.158 608.718 395.622 599.083 404.976 590.479Z"/><path fill="#F3F2DE" d="M400.453 356.403C404.904 357.792 409.581 359.063 414.077 360.353C414.804 366.271 414.328 374.368 414.043 380.413C413.272 380.516 413.738 380.518 412.664 380.181C407.907 375.162 403.235 363.041 400.453 356.403Z"/><path fill="#F3F2DE" d="M388.177 485C388.257 486.4 386.964 489.111 386.353 490.674C382.487 500.558 380.477 507.79 384.485 517.932C387.384 525.27 396.3 529.455 397.24 531.698L396.31 532.048C394.748 531.272 392.743 530.184 391.312 529.177C385.314 524.98 381.304 518.503 380.218 511.264C378.829 501.977 382.634 492.313 388.177 485Z"/><path fill="#EAD8A3" d="M348.123 818.435L349.266 818.404C351.159 820.718 351.629 822.411 354.383 822.702C356.874 828 361.355 836.387 362.141 842.162C362.234 842.845 361.761 843.006 361.103 843.634L360.031 843.478C356.243 840.159 350.25 823.684 348.123 818.435Z"/><path fill="#F3F2DE" d="M343.596 329.273C344.972 329.744 344.525 329.289 345.13 330.493C344.423 333.122 338.808 337.749 337.747 340.066C335.489 344.998 339.736 353.64 341.775 358.553C333.603 355.966 333.894 342.941 337.229 336.876C339.3 333.107 340.485 332.047 343.596 329.273Z"/><path fill="#F3F2DE" d="M362.909 280.868L363.205 281.14C363.724 283.619 357.228 292.747 358.063 296.549C359.143 301.471 363.21 305.534 364.885 309.787L364.49 310.431C354.23 302.293 352.523 289.756 362.909 280.868Z"/><path fill="#FB9E5A" d="M808.906 524.917C813.208 525.449 823.264 526.381 823.384 531.639L815.328 532.696C813.584 530.309 810.865 527.248 808.906 524.917Z"/><path fill="#F3F2DE" d="M857.726 303.951C858.209 308.269 842.615 329.668 839.157 334.618C838.69 331.825 855.022 307.821 857.726 303.951Z"/><path fill="#E07A60" d="M816.365 550.833C818.101 551.251 819.827 551.711 821.541 552.214C823.156 552.701 824.888 553.199 825.702 554.715C824.762 556.138 825.378 555.509 823.369 556.228C820.548 556.998 816.99 557.519 814.044 558.032C815.06 555.476 815.622 553.452 816.365 550.833Z"/><path fill="#FB9E5A" d="M816.405 538.201C818.671 539.076 823.161 540.587 824.366 542.504L823.805 543.124L817.724 544.997C817.386 542.823 816.839 540.383 816.405 538.201Z"/><path fill="#B4A891" d="M387.423 852.579C386.315 855.08 379.053 858.85 376.452 860.151L376.385 859.64C377.646 857.602 384.92 853.933 387.423 852.579Z"/><path fill="#D2CFCB" d="M864.527 709.28L866.441 709.884L866.38 710.291L862.837 710.615L864.527 709.28Z"/></svg>